<svg width="71" height="70" viewBox="0 0 71 70" fill="none" xmlns="http://www.w3.org/2000/svg">
<path fill-rule="evenodd" clip-rule="evenodd" d="M22.0841 3.10917C25.5542 2.95167 26.6607 2.91667 35.5002 2.91667C44.3397 2.91667 45.4461 2.95459 48.9132 3.10917C52.3804 3.26376 54.7471 3.80917 56.8179 4.59959C58.9864 5.40751 60.9537 6.67042 62.5807 8.30375C64.2374 9.905 65.5154 11.8417 66.3319 13.9825C67.1366 16.0242 67.6868 18.3575 67.8466 21.77C68.0063 25.1971 68.0418 26.2879 68.0418 35C68.0418 43.715 68.0034 44.8058 67.8466 48.2271C67.6898 51.6396 67.1366 53.9729 66.3319 56.0146C65.5154 58.1557 64.2353 60.0956 62.5807 61.6992C60.9537 63.3325 58.9864 64.5925 56.8179 65.3975C54.7471 66.1908 52.3804 66.7333 48.9192 66.8908C45.4461 67.0483 44.3397 67.0833 35.5002 67.0833C26.6607 67.0833 25.5542 67.0454 22.0841 66.8908C18.6229 66.7363 16.2562 66.1908 14.1854 65.3975C12.0137 64.5924 10.0461 63.3303 8.41958 61.6992C6.76404 60.097 5.48289 58.158 4.66545 56.0175C3.86375 53.9758 3.3135 51.6425 3.15375 48.23C2.994 44.8029 2.9585 43.7121 2.9585 35C2.9585 26.285 2.99695 25.1942 3.15375 21.7758C3.31054 18.3575 3.86375 16.0242 4.66545 13.9825C5.48409 11.8419 6.76622 9.903 8.42254 8.30084C10.0468 6.66897 12.0124 5.40588 14.1824 4.59959C16.2532 3.80917 18.6199 3.26667 22.0812 3.10917H22.0841ZM48.6499 8.88417C45.2183 8.72959 44.1888 8.6975 35.5002 8.6975C26.8115 8.6975 25.782 8.72959 22.3504 8.88417C19.1761 9.02709 17.4543 9.54917 16.3065 9.98959C14.7889 10.5729 13.7032 11.2642 12.5642 12.3871C11.4845 13.4227 10.6537 14.6833 10.1325 16.0767C9.68575 17.2083 9.1562 18.9058 9.01125 22.0354C8.85445 25.4188 8.82191 26.4338 8.82191 35C8.82191 43.5663 8.85445 44.5813 9.01125 47.9646C9.1562 51.0942 9.68575 52.7917 10.1325 53.9233C10.6531 55.3146 11.4844 56.5775 12.5642 57.6129C13.6144 58.6775 14.8954 59.4971 16.3065 60.0104C17.4543 60.4508 19.1761 60.9729 22.3504 61.1158C25.782 61.2704 26.8086 61.3025 35.5002 61.3025C44.1917 61.3025 45.2183 61.2704 48.6499 61.1158C51.8242 60.9729 53.546 60.4508 54.6938 60.0104C56.2115 59.4271 57.2972 58.7358 58.4361 57.6129C59.5159 56.5775 60.3472 55.3146 60.8679 53.9233C61.3146 52.7917 61.8441 51.0942 61.9891 47.9646C62.1459 44.5813 62.1784 43.5663 62.1784 35C62.1784 26.4338 62.1459 25.4188 61.9891 22.0354C61.8441 18.9058 61.3146 17.2083 60.8679 16.0767C60.2762 14.5804 59.5751 13.51 58.4361 12.3871C57.3857 11.3227 56.107 10.5035 54.6938 9.98959C53.546 9.54917 51.8242 9.02709 48.6499 8.88417ZM31.3437 44.8904C33.665 45.8431 36.2497 45.9717 38.6565 45.2542C41.0632 44.5367 43.1427 43.0177 44.5397 40.9565C45.9366 38.8954 46.5645 36.42 46.316 33.9532C46.0674 31.4864 44.958 29.1812 43.177 27.4313C42.0417 26.3126 40.669 25.4561 39.1576 24.9233C37.6463 24.3906 36.0339 24.1948 34.4366 24.3501C32.8393 24.5055 31.2968 25.008 29.9202 25.8216C28.5435 26.6352 27.3669 27.7397 26.4752 29.0554C25.5834 30.3711 24.9986 31.8654 24.7629 33.4307C24.5272 34.996 24.6465 36.5934 25.1121 38.1078C25.5777 39.6222 26.3781 41.0159 27.4556 42.1888C28.5332 43.3616 29.8611 44.2843 31.3437 44.8904ZM23.6727 23.3392C25.2259 21.8078 27.0699 20.5931 29.0992 19.7644C31.1286 18.9356 33.3036 18.5091 35.5002 18.5091C37.6967 18.5091 39.8718 18.9356 41.9011 19.7644C43.9305 20.5931 45.7744 21.8078 47.3276 23.3392C48.8808 24.8705 50.1128 26.6884 50.9534 28.6892C51.794 30.69 52.2267 32.8344 52.2267 35C52.2267 37.1656 51.794 39.31 50.9534 41.3108C50.1128 43.3116 48.8808 45.1295 47.3276 46.6608C44.1908 49.7535 39.9363 51.4909 35.5002 51.4909C31.064 51.4909 26.8096 49.7535 23.6727 46.6608C20.5359 43.5682 18.7737 39.3737 18.7737 35C18.7737 30.6263 20.5359 26.4318 23.6727 23.3392ZM55.9363 20.965C56.3212 20.607 56.6293 20.1766 56.8425 19.6991C57.0556 19.2216 57.1694 18.7068 57.1771 18.1852C57.1848 17.6636 57.0863 17.1458 56.8874 16.6624C56.6885 16.179 56.3932 15.7398 56.019 15.371C55.6449 15.0021 55.1995 14.711 54.7092 14.5148C54.2189 14.3187 53.6936 14.2216 53.1646 14.2292C52.6355 14.2368 52.1134 14.349 51.6291 14.5591C51.1448 14.7692 50.7082 15.073 50.3451 15.4525C49.639 16.1905 49.2524 17.1708 49.2674 18.1852C49.2824 19.1997 49.6978 20.1684 50.4254 20.8858C51.1531 21.6032 52.1356 22.0128 53.1646 22.0275C54.1935 22.0423 55.1878 21.6612 55.9363 20.965Z" fill="black"/>
</svg>
