<svg width="45" height="63" viewBox="0 0 45 63" fill="none" xmlns="http://www.w3.org/2000/svg">
<path d="M0 0C0 8.07614 5.01429 15.4344 12.8571 18.9042V62.8145H19.2857V41.8763H25.7143V62.8145H32.1429V18.8742C39.9857 15.4344 45 8.07614 45 0H38.5714C38.5714 3.96653 36.8782 7.7706 33.8642 10.5754C32.3718 11.9641 30.6001 13.0658 28.6503 13.8174C26.7004 14.569 24.6105 14.9558 22.5 14.9558C18.2376 14.9558 14.1498 13.3801 11.1358 10.5754C8.12181 7.7706 6.42857 3.96653 6.42857 0H0ZM22.5 0C18.9321 0 16.0714 2.66214 16.0714 5.98233C16.0714 9.30252 18.9321 11.9647 22.5 11.9647C26.0679 11.9647 28.9286 9.30252 28.9286 5.98233C28.9286 2.66214 26.0679 0 22.5 0Z" fill="black"/>
</svg>
