<svg width="58" height="55" viewBox="0 0 58 55" fill="none" xmlns="http://www.w3.org/2000/svg">
<path d="M9.66667 42.293C9.66667 36.2511 22.5556 32.9281 29 32.9281C35.4444 32.9281 48.3333 36.2511 48.3333 42.293V45.3139H9.66667V42.293ZM38.6667 18.1256C38.6667 20.5292 37.6482 22.8343 35.8354 24.5339C34.0225 26.2335 31.5638 27.1884 29 27.1884C26.4362 27.1884 23.9775 26.2335 22.1646 24.5339C20.3518 22.8343 19.3333 20.5292 19.3333 18.1256C19.3333 15.722 20.3518 13.4168 22.1646 11.7172C23.9775 10.0176 26.4362 9.06279 29 9.06279C31.5638 9.06279 34.0225 10.0176 35.8354 11.7172C37.6482 13.4168 38.6667 15.722 38.6667 18.1256ZM0 6.04186V48.3349C0 49.9373 0.678966 51.474 1.88753 52.6071C3.0961 53.7402 4.73527 54.3767 6.44444 54.3767H51.5556C53.2647 54.3767 54.9039 53.7402 56.1125 52.6071C57.321 51.474 58 49.9373 58 48.3349V6.04186C58 4.43946 57.321 2.90269 56.1125 1.76962C54.9039 0.636551 53.2647 0 51.5556 0H6.44444C4.73527 0 3.0961 0.636551 1.88753 1.76962C0.678966 2.90269 0 4.43946 0 6.04186Z" fill="black"/>
</svg>
